<svg width="31" height="30" viewBox="0 0 31 30" fill="none" xmlns="http://www.w3.org/2000/svg">
<ellipse cx="15.0135" cy="14.9974" rx="15.0135" ry="14.9974" fill="white" fill-opacity="0.2"/>
<path d="M10.9419 6L12.8219 7.88M17.0619 7.88L18.9419 6M11.9419 11V10C11.9419 9.20435 12.2579 8.44129 12.8206 7.87868C13.3832 7.31607 14.1462 7 14.9419 7C15.7375 7 16.5006 7.31607 17.0632 7.87868C17.6258 8.44129 17.9419 9.20435 17.9419 10V11M10.5019 16H19.3719M10.4419 21H19.4419M18.4419 14.7C19.3419 15.6 19.8419 16.8 19.9419 18C19.9419 23.8 14.9419 26 14.9419 26C14.9419 26 9.94188 23.8 9.94188 18C10.0419 16.8 10.5419 15.6 11.4419 14.7M7.94188 11C7.44984 11.0095 6.9677 11.14 6.53797 11.3798C6.10824 11.6196 5.74411 11.9615 5.47767 12.3753C5.21124 12.7891 5.05069 13.262 5.01018 13.7525C4.96967 14.2429 5.05044 14.7358 5.24537 15.1877C5.4403 15.6396 5.7434 16.0366 6.12795 16.3437C6.51251 16.6508 6.96671 16.8585 7.45051 16.9487C7.93432 17.0388 8.43287 17.0086 8.90222 16.8606C9.37156 16.7126 9.79729 16.4514 10.1419 16.1C12.0419 14 14.9419 11 14.9419 11C14.9419 11 17.8419 14 19.7419 16.1C20.0865 16.4514 20.5122 16.7126 20.9815 16.8606C21.4509 17.0086 21.9494 17.0388 22.4332 16.9487C22.917 16.8585 23.3712 16.6508 23.7558 16.3437C24.1404 16.0366 24.4435 15.6396 24.6384 15.1877C24.8333 14.7358 24.9141 14.2429 24.8736 13.7525C24.8331 13.262 24.6725 12.7891 24.4061 12.3753C24.1396 11.9615 23.7755 11.6196 23.3458 11.3798C22.9161 11.14 22.4339 11.0095 21.9419 11H7.94188Z" stroke="white" stroke-width="1.5" stroke-linecap="round" stroke-linejoin="round"/>
</svg>
