<svg width="31" height="38" viewBox="0 0 31 38" fill="none" xmlns="http://www.w3.org/2000/svg">
<path d="M15.5224 9.99036C16.4999 9.99036 17.4556 9.6974 18.2684 9.14852C19.0812 8.59964 19.7147 7.8195 20.0889 6.90675C20.463 5.994 20.5608 4.98964 20.3701 4.02067C20.1794 3.0517 19.7087 2.16164 19.0174 1.46306C18.3261 0.764468 17.4454 0.288723 16.4866 0.0959832C15.5278 -0.0967569 14.534 0.0021643 13.6309 0.380238C12.7277 0.758311 11.9557 1.39856 11.4126 2.22001C10.8695 3.04146 10.5796 4.00723 10.5796 4.99518C10.5796 6.31999 11.1004 7.59053 12.0273 8.52731C12.9543 9.46408 14.2115 9.99036 15.5224 9.99036ZM15.5224 1.99807C16.1089 1.99807 16.6823 2.17385 17.17 2.50318C17.6577 2.8325 18.0378 3.30059 18.2623 3.84824C18.4867 4.39589 18.5454 4.99851 18.431 5.57989C18.3166 6.16127 18.0341 6.6953 17.6194 7.11446C17.2046 7.53361 16.6762 7.81906 16.1009 7.9347C15.5256 8.05035 14.9294 7.99099 14.3875 7.76415C13.8456 7.5373 13.3824 7.15316 13.0565 6.66028C12.7306 6.16741 12.5567 5.58795 12.5567 4.99518C12.5567 4.2003 12.8692 3.43797 13.4253 2.87591C13.9815 2.31384 14.7358 1.99807 15.5224 1.99807ZM30.166 20.8832L22.7173 12.3481C22.2535 11.8165 21.6831 11.3907 21.044 11.099C20.4048 10.8073 19.7116 10.6565 19.0103 10.6564H12.0344C11.3333 10.6562 10.6401 10.8069 10.0009 11.0983C9.3618 11.3896 8.79132 11.8151 8.32738 12.3464L0.878677 20.8832C0.601948 21.1602 0.381924 21.4896 0.231166 21.8526C0.0804083 22.2156 0.00186889 22.605 3.29921e-05 22.9987C-0.00367478 23.7937 0.305271 24.5576 0.858906 25.1224C1.41254 25.6872 2.16551 26.0066 2.95218 26.0104C3.73884 26.0141 4.49476 25.7019 5.05364 25.1424L8.53168 22.3235L5.54462 33.7874C5.2306 34.5086 5.21021 35.3257 5.48787 36.062C5.76553 36.7982 6.3189 37.3943 7.02821 37.7213C7.73753 38.0484 8.54574 38.0799 9.27792 37.8092C10.0101 37.5386 10.6074 36.9874 10.9404 36.275L15.5224 28.306L20.1043 36.2833C20.4374 36.9957 21.0346 37.5469 21.7668 37.8176C22.499 38.0883 23.3072 38.0567 24.0165 37.7297C24.7258 37.4027 25.2792 36.8065 25.5568 36.0703C25.8345 35.334 25.8141 34.5169 25.5001 33.7957L22.513 22.3285L25.9911 25.1424C26.5533 25.6826 27.3026 25.9786 28.0783 25.967C28.854 25.9553 29.5943 25.637 30.1404 25.0803C30.6866 24.5235 30.9952 23.7726 30.9999 22.9887C31.0047 22.2047 30.7054 21.45 30.166 20.8865V20.8832ZM28.7442 23.6838C28.6524 23.7767 28.5433 23.8504 28.4233 23.9007C28.3033 23.9509 28.1747 23.9768 28.0448 23.9768C27.9149 23.9768 27.7862 23.9509 27.6662 23.9007C27.5462 23.8504 27.4372 23.7767 27.3454 23.6838C27.3205 23.6572 27.2935 23.6327 27.2647 23.6106L21.4141 18.8685C21.2519 18.7369 21.0529 18.6604 20.8452 18.6498C20.6375 18.6392 20.4318 18.695 20.2574 18.8093C20.0829 18.9237 19.9486 19.0907 19.8735 19.2867C19.7984 19.4826 19.7863 19.6975 19.839 19.9008L23.607 34.3752C23.6237 34.432 23.644 34.4876 23.668 34.5417C23.7788 34.7819 23.7906 35.0568 23.7008 35.3058C23.611 35.5548 23.4271 35.7576 23.1894 35.8696C22.9517 35.9815 22.6797 35.9934 22.4333 35.9027C22.1869 35.812 21.9862 35.6261 21.8754 35.3859C21.8635 35.3583 21.8497 35.3316 21.8342 35.3059L16.3775 25.8084C16.2906 25.657 16.1658 25.5314 16.0158 25.444C15.8657 25.3567 15.6955 25.3107 15.5224 25.3107C15.3492 25.3107 15.179 25.3567 15.029 25.444C14.8789 25.5314 14.7542 25.657 14.6673 25.8084L9.21048 35.3076C9.19498 35.3333 9.18122 35.36 9.16929 35.3875C9.05852 35.6278 8.85786 35.8137 8.61145 35.9044C8.36504 35.9951 8.09306 35.9832 7.85535 35.8712C7.61764 35.7593 7.43367 35.5565 7.34391 35.3075C7.25415 35.0584 7.26596 34.7836 7.37673 34.5433C7.40069 34.4893 7.42105 34.4336 7.43769 34.3768L11.2057 19.9025C11.2576 19.6999 11.2453 19.4861 11.1705 19.291C11.0957 19.0959 10.9622 18.9295 10.7889 18.8152C10.6288 18.7086 10.4418 18.6509 10.2501 18.6487C10.0249 18.6485 9.8063 18.726 9.63062 18.8685L3.78006 23.6106C3.75121 23.6327 3.7242 23.6572 3.69933 23.6838C3.51384 23.8713 3.26226 23.9766 2.99993 23.9766C2.73761 23.9766 2.48603 23.8713 2.30054 23.6838C2.11505 23.4964 2.01084 23.2421 2.01084 22.977C2.01084 22.7119 2.11505 22.4576 2.30054 22.2702L2.34337 22.2252L9.8102 13.6685C10.0886 13.3497 10.4309 13.0944 10.8143 12.9196C11.1978 12.7447 11.6137 12.6544 12.0344 12.6545H19.0103C19.431 12.6544 19.8469 12.7447 20.2304 12.9196C20.6139 13.0944 20.9561 13.3497 21.2345 13.6685L28.703 22.2252L28.7458 22.2702C28.8376 22.3631 28.9104 22.4733 28.96 22.5947C29.0096 22.716 29.0351 22.8461 29.0349 22.9773C29.0348 23.1086 29.009 23.2386 28.9591 23.3598C28.9092 23.481 28.8362 23.5911 28.7442 23.6838Z" fill="#AEA5A5"/>
<path d="M16.3312 19.4979C16.3249 19.4916 16.3184 19.3735 16.2791 19.1684C16.174 19.016 16.0159 18.8552 15.8367 18.6708C15.7446 18.5833 15.65 18.5082 15.4415 18.3595" stroke="#AEA5A5" stroke-width="4" stroke-linecap="round"/>
<path d="M15.4223 18.3595C15.4011 18.3595 14.5844 18.3537 13.1696 18.312C12.5598 18.294 12.1728 18.21 11.636 18.0811C10.4184 17.7888 9.67006 17.5601 9.53381 17.5784C9.00728 17.6494 8.46899 18.4146 7.28575 19.0029C6.87738 19.206 6.66279 19.3269 5.50606 20.154C4.56773 20.8249 3.82741 21.3921 3.50753 21.7562C3.3822 21.8979 3.33198 21.9521 3.2872 22.0041C3.24241 22.0561 3.2046 22.1044 3.05615 22.2879" stroke="#AEA5A5" stroke-width="4" stroke-linecap="round"/>
<path d="M7.64539 17.0273C7.6845 16.9617 8.16479 16.5293 8.96184 15.8467C9.87296 15.0663 10.4575 14.3921 10.9158 14.0898C11.5007 13.704 12.0464 13.4982 12.7162 13.4013C13.2141 13.3294 14.0481 13.3548 15.0899 13.3762C16.1317 13.3977 17.3599 13.4511 18.0254 13.4864C19.0574 13.5412 19.6835 13.9108 20.0821 14.1752C20.2065 14.2577 20.3325 14.3948 20.7522 14.9927C21.1719 15.5906 21.8727 16.6574 22.3024 17.2771C22.7321 17.8969 22.8696 18.0375 23.6101 18.6813C24.3507 19.325 25.6902 20.4678 26.4052 21.074C27.1701 21.7154 27.3205 21.8343 27.5044 21.9975C27.5893 22.0781 27.6572 22.154 27.7319 22.2497" stroke="#AEA5A5" stroke-width="4" stroke-linecap="round"/>
<path d="M19.2813 17.4409C19.2704 17.4409 18.2783 17.4395 16.7273 17.4308C15.8356 17.4257 15.3558 17.159 14.8779 16.8542C14.5312 16.633 14.3025 16.4329 14.1293 16.3968C13.5701 16.3929 13.2168 16.4729 12.8591 16.5486C12.6637 16.5789 12.4401 16.5928 12.1865 16.5166" stroke="#AEA5A5" stroke-width="4" stroke-linecap="round"/>
<path d="M13.0032 19.0461C13.0032 19.0525 12.9982 19.3235 12.7706 20.44C12.5952 21.2999 12.1076 22.7107 11.8148 23.7558C11.5221 24.801 11.3903 25.4264 11.1976 26.1739C11.0049 26.9213 10.7554 27.7719 10.5099 28.5077C10.2644 29.2435 10.0304 29.8389 9.87258 30.2734C9.6239 30.9581 9.33461 31.81 8.91606 32.832C8.58167 33.5497 8.40201 33.8907 8.3406 34.005C8.31006 34.0651 8.28078 34.1297 8.18774 34.3151" stroke="#AEA5A5" stroke-width="4" stroke-linecap="round"/>
<path d="M17.445 18.1129C17.4386 18.1129 17.4435 18.2949 17.6051 19.19C17.7347 19.9078 18.0571 21.1417 18.4463 22.4169C18.8354 23.692 19.3061 24.9662 19.6353 26.0466C19.9645 27.127 20.138 27.9751 20.2449 28.532C20.3517 29.089 20.3867 29.3292 20.5897 30.0139C20.7928 30.6985 21.1629 31.8203 21.3925 32.5054C21.6999 33.4049 21.8672 33.8313 22.0149 34.193C22.0753 34.3491 22.1065 34.4496 22.1395 34.5828" stroke="#AEA5A5" stroke-width="4" stroke-linecap="round"/>
<path d="M20.3996 18.8822C20.3932 18.8884 20.3868 19.3728 20.3702 20.1404C20.3331 20.5033 20.2795 20.6313 20.1991 20.6997C20.1481 20.7189 20.0761 20.7067 20.002 20.6941" stroke="#AEA5A5" stroke-width="4" stroke-linecap="round"/>
<path d="M18.6322 28.7715C18.6446 28.6915 18.6289 28.4444 18.2587 27.826C17.9232 27.2656 17.237 26.2358 16.8281 25.5228C16.2335 24.4861 16.1319 23.8054 16.0769 23.0239C15.9915 21.8106 16.0293 20.9443 15.965 20.7282C15.9372 20.635 15.8717 20.5927 15.8083 20.5716C15.745 20.5505 15.6736 20.5563 15.5777 20.6251C15.3392 20.796 15.0571 21.2987 14.7177 21.9747C14.394 22.6196 14.1932 23.5222 13.9754 24.4182C13.7791 25.2255 13.4114 25.6773 12.9832 26.3703C12.6948 26.8371 12.3072 27.5649 12.0329 28.0673C11.6208 28.8318 11.3845 29.2482 11.2255 29.4981C11.1608 29.6017 11.1289 29.658 11.0129 29.731" stroke="#AEA5A5" stroke-width="4" stroke-linecap="round"/>
<path d="M15.1248 6.16683C15.1105 6.18807 15.0361 6.19921 14.9065 6.16423C14.5788 6.07576 14.5468 5.55797 14.4967 5.12994C14.3978 4.28555 14.7286 3.71126 14.9782 3.39647C15.1867 3.13342 15.5366 3.00058 15.8093 2.90185C16.0457 2.81625 16.2428 2.88939 16.3619 2.96755C16.603 3.12565 16.681 3.81088 16.7207 5.23463C16.7301 5.56914 16.6616 5.69401 16.5936 5.80866C16.4021 6.00709 16.0802 6.16182 15.7846 6.21993C15.7209 6.21695 15.6605 6.19789 15.5982 6.17826" stroke="#AEA5A5" stroke-width="4" stroke-linecap="round"/>
</svg>
