<svg width="31" height="38" viewBox="0 0 31 38" fill="none" xmlns="http://www.w3.org/2000/svg">
<path d="M15.5224 9.99036C16.4999 9.99036 17.4556 9.6974 18.2684 9.14852C19.0812 8.59964 19.7147 7.8195 20.0889 6.90675C20.463 5.994 20.5608 4.98964 20.3701 4.02067C20.1794 3.0517 19.7087 2.16164 19.0174 1.46306C18.3261 0.764468 17.4454 0.288723 16.4866 0.0959832C15.5278 -0.0967569 14.534 0.0021643 13.6309 0.380238C12.7277 0.758311 11.9557 1.39856 11.4126 2.22001C10.8695 3.04146 10.5796 4.00723 10.5796 4.99518C10.5796 6.31999 11.1004 7.59053 12.0273 8.52731C12.9543 9.46408 14.2115 9.99036 15.5224 9.99036ZM15.5224 1.99807C16.1089 1.99807 16.6823 2.17385 17.17 2.50318C17.6577 2.8325 18.0378 3.30059 18.2623 3.84824C18.4867 4.39589 18.5454 4.99851 18.431 5.57989C18.3166 6.16127 18.0341 6.6953 17.6194 7.11446C17.2046 7.53361 16.6762 7.81906 16.1009 7.9347C15.5256 8.05035 14.9294 7.99099 14.3875 7.76415C13.8456 7.5373 13.3824 7.15316 13.0565 6.66028C12.7306 6.16741 12.5567 5.58795 12.5567 4.99518C12.5567 4.2003 12.8692 3.43797 13.4253 2.87591C13.9815 2.31384 14.7358 1.99807 15.5224 1.99807ZM30.166 20.8832L22.7173 12.3481C22.2535 11.8165 21.6831 11.3907 21.044 11.099C20.4048 10.8073 19.7116 10.6565 19.0103 10.6564H12.0344C11.3333 10.6562 10.6401 10.8069 10.0009 11.0983C9.3618 11.3896 8.79132 11.8151 8.32738 12.3464L0.878677 20.8832C0.601948 21.1602 0.381924 21.4896 0.231166 21.8526C0.0804083 22.2156 0.00186889 22.605 3.29921e-05 22.9987C-0.00367478 23.7937 0.305271 24.5576 0.858906 25.1224C1.41254 25.6872 2.16551 26.0066 2.95218 26.0104C3.73884 26.0141 4.49476 25.7019 5.05364 25.1424L8.53168 22.3235L5.54462 33.7874C5.2306 34.5086 5.21021 35.3257 5.48787 36.062C5.76553 36.7982 6.3189 37.3943 7.02821 37.7213C7.73753 38.0484 8.54574 38.0799 9.27792 37.8092C10.0101 37.5386 10.6074 36.9874 10.9404 36.275L15.5224 28.306L20.1043 36.2833C20.4374 36.9957 21.0346 37.5469 21.7668 37.8176C22.499 38.0883 23.3072 38.0567 24.0165 37.7297C24.7258 37.4027 25.2792 36.8065 25.5568 36.0703C25.8345 35.334 25.8141 34.5169 25.5001 33.7957L22.513 22.3285L25.9911 25.1424C26.5533 25.6826 27.3026 25.9786 28.0783 25.967C28.854 25.9553 29.5943 25.637 30.1404 25.0803C30.6866 24.5235 30.9952 23.7726 30.9999 22.9887C31.0047 22.2047 30.7054 21.45 30.166 20.8865V20.8832ZM28.7442 23.6838C28.6524 23.7767 28.5433 23.8504 28.4233 23.9007C28.3033 23.9509 28.1747 23.9768 28.0448 23.9768C27.9149 23.9768 27.7862 23.9509 27.6662 23.9007C27.5462 23.8504 27.4372 23.7767 27.3454 23.6838C27.3205 23.6572 27.2935 23.6327 27.2647 23.6106L21.4141 18.8685C21.2519 18.7369 21.0529 18.6604 20.8452 18.6498C20.6375 18.6392 20.4318 18.695 20.2574 18.8093C20.0829 18.9237 19.9486 19.0907 19.8735 19.2867C19.7984 19.4826 19.7863 19.6975 19.839 19.9008L23.607 34.3752C23.6237 34.432 23.644 34.4876 23.668 34.5417C23.7788 34.7819 23.7906 35.0568 23.7008 35.3058C23.611 35.5548 23.4271 35.7576 23.1894 35.8696C22.9517 35.9815 22.6797 35.9934 22.4333 35.9027C22.1869 35.812 21.9862 35.6261 21.8754 35.3859C21.8635 35.3583 21.8497 35.3316 21.8342 35.3059L16.3775 25.8084C16.2906 25.657 16.1658 25.5314 16.0158 25.444C15.8657 25.3567 15.6955 25.3107 15.5224 25.3107C15.3492 25.3107 15.179 25.3567 15.029 25.444C14.8789 25.5314 14.7542 25.657 14.6673 25.8084L9.21048 35.3076C9.19498 35.3333 9.18122 35.36 9.16929 35.3875C9.05852 35.6278 8.85786 35.8137 8.61145 35.9044C8.36504 35.9951 8.09306 35.9832 7.85535 35.8712C7.61764 35.7593 7.43367 35.5565 7.34391 35.3075C7.25415 35.0584 7.26596 34.7836 7.37673 34.5433C7.40069 34.4893 7.42105 34.4336 7.43769 34.3768L11.2057 19.9025C11.2576 19.6999 11.2453 19.4861 11.1705 19.291C11.0957 19.0959 10.9622 18.9295 10.7889 18.8152C10.6288 18.7086 10.4418 18.6509 10.2501 18.6487C10.0249 18.6485 9.8063 18.726 9.63062 18.8685L3.78006 23.6106C3.75121 23.6327 3.7242 23.6572 3.69933 23.6838C3.51384 23.8713 3.26226 23.9766 2.99993 23.9766C2.73761 23.9766 2.48603 23.8713 2.30054 23.6838C2.11505 23.4964 2.01084 23.2421 2.01084 22.977C2.01084 22.7119 2.11505 22.4576 2.30054 22.2702L2.34337 22.2252L9.8102 13.6685C10.0886 13.3497 10.4309 13.0944 10.8143 12.9196C11.1978 12.7447 11.6137 12.6544 12.0344 12.6545H19.0103C19.431 12.6544 19.8469 12.7447 20.2304 12.9196C20.6139 13.0944 20.9561 13.3497 21.2345 13.6685L28.703 22.2252L28.7458 22.2702C28.8376 22.3631 28.9104 22.4733 28.96 22.5947C29.0096 22.716 29.0351 22.8461 29.0349 22.9773C29.0348 23.1086 29.009 23.2386 28.9591 23.3598C28.9092 23.481 28.8362 23.5911 28.7442 23.6838Z" fill="#AEA5A5"/>
</svg>
