<svg width="34" height="31" viewBox="0 0 34 31" fill="none" xmlns="http://www.w3.org/2000/svg">
<path d="M22.9461 14.8353L22.8775 14.8783M22.8775 14.8783L13.5932 20.7122C13.4154 20.8239 13.1888 20.8287 13.0063 20.7246L4.38179 15.8064M22.8775 14.8783C22.8293 14.7958 22.7592 14.7254 22.6724 14.6759L10.9328 7.97832C10.5696 7.77115 10.5584 7.26143 10.912 7.03907L14.0425 5.07065C14.2202 4.95889 14.4469 4.95404 14.6295 5.05811L26.8656 12.0336C27.0387 12.1322 27.1451 12.3135 27.1451 12.5095V16.8661M22.8775 14.8783C22.9254 14.9602 22.9517 15.0542 22.9517 15.1518V19.5029M4.38179 15.8064L1.27971 14.0375C0.916379 13.8303 0.905196 13.3203 1.25912 13.098L20.3838 1.08717C20.5615 0.975585 20.788 0.970787 20.9704 1.07475L32.6968 7.75665C33.0602 7.96375 33.0716 8.47383 32.7176 8.69618L27.1962 12.1649M4.38179 15.8064L1.25848 17.7709C0.904789 17.9933 0.91623 18.5032 1.27956 18.7102L13.0064 25.3924C13.1889 25.4964 13.4154 25.4916 13.5931 25.38L22.9517 19.5029M4.38179 15.8064L4.38279 15.8058M22.9517 19.5029V23.022C22.9517 23.4576 23.4438 23.7208 23.8182 23.4854L26.8865 21.556C27.0477 21.4547 27.1451 21.2801 27.1451 21.0926V16.8661M29.5941 10.6613L32.6965 12.4296C33.06 12.6368 33.0712 13.147 32.7171 13.3692L29.8241 15.1848M29.8241 15.1848L27.1451 16.8661M29.8241 15.1848L29.8213 15.1831M29.8241 15.1848L32.7338 16.9503C33.0855 17.1636 33.0895 17.6632 32.7413 17.8819L13.5932 29.9128C13.4154 30.0244 13.1888 30.0292 13.0063 29.9252L1.27971 23.238C0.916375 23.0308 0.905191 22.5208 1.25911 22.2985L4.26347 20.4117" stroke="white" stroke-width="2" stroke-linecap="round" stroke-linejoin="round"/>
</svg>
